<?xml version="1.0" encoding="UTF-8" standalone="no"?>
<!-- Created with Inkscape (http://www.inkscape.org/) -->

<svg
   width="210mm"
   height="297mm"
   viewBox="0 0 210 297"
   version="1.1"
   id="svg1"
   inkscape:version="1.3 (0e150ed, 2023-07-21)"
   sodipodi:docname="kassi.svg"
   xmlns:inkscape="http://www.inkscape.org/namespaces/inkscape"
   xmlns:sodipodi="http://sodipodi.sourceforge.net/DTD/sodipodi-0.dtd"
   xmlns="http://www.w3.org/2000/svg"
   xmlns:svg="http://www.w3.org/2000/svg">
  <sodipodi:namedview
     id="namedview1"
     pagecolor="#ffffff"
     bordercolor="#000000"
     borderopacity="0.25"
     inkscape:showpageshadow="2"
     inkscape:pageopacity="0.0"
     inkscape:pagecheckerboard="0"
     inkscape:deskcolor="#d1d1d1"
     inkscape:document-units="mm"
     inkscape:zoom="0.32843822"
     inkscape:cx="540.4365"
     inkscape:cy="347.09725"
     inkscape:window-width="1440"
     inkscape:window-height="847"
     inkscape:window-x="0"
     inkscape:window-y="25"
     inkscape:window-maximized="1"
     inkscape:current-layer="layer1" />
  <defs
     id="defs1" />
  <g
     inkscape:label="Layer 1"
     inkscape:groupmode="layer"
     id="layer1">
    <g
       id="panel9084">
      <path
         style="fill:none;stroke:#000000;stroke-width:1"
         d="M 93.15 284.8 L 114.105 284.8 L 114.105 282.3 L 134.255 282.3 L 134.255 284.8 L 155.135 284.8 L 155.135 282.3 L 175.285 282.3 L 175.285 284.8 L 196.165 284.8 L 196.165 282.3 L 216.315 282.3 L 216.315 284.8 L 237.195 284.8 L 237.195 282.3 L 257.345 282.3 L 257.345 284.8 L 278.3 284.8"
         id="path24" />
      <path
         style="fill:none;stroke:#000000;stroke-width:1"
         d="M 278.3 284.8 L 278.3 314.95 L 275.8 314.95 L 275.8 334.8 L 278.3 334.8 L 278.3 364.95"
         id="path25" />
      <path
         style="fill:none;stroke:#000000;stroke-width:1"
         d="M 278.3 364.95 L 257.345 364.95 L 257.345 367.45 L 237.195 367.45 L 237.195 364.95 L 216.315 364.95 L 216.315 367.45 L 196.165 367.45 L 196.165 364.95 L 175.285 364.95 L 175.285 367.45 L 155.135 367.45 L 155.135 364.95 L 134.255 364.95 L 134.255 367.45 L 114.105 367.45 L 114.105 364.95 L 93.15 364.95"
         id="path26" />
      <path
         style="fill:none;stroke:#000000;stroke-width:1"
         d="M 93.15 364.95 L 93.15 334.8 L 95.65 334.8 L 95.65 314.95 L 93.15 314.95 L 93.15 284.8"
         id="path27" />
    </g>
    <g
       id="panel1331">
      <path
         style="fill:none;stroke:#000000;stroke-width:1"
         d="M 6.5 95.65 L 36.5 95.65 L 36.5 93.15 L 56.65 93.15 L 56.65 95.65 L 86.65 95.65"
         id="path28" />
      <path
         style="fill:none;stroke:#000000;stroke-width:1"
         d="M 86.65 95.65 L 86.65 114.105 L 89.15 114.105 L 89.15 134.255 L 86.65 134.255 L 86.65 155.135 L 89.15 155.135 L 89.15 175.285 L 86.65 175.285 L 86.65 196.165 L 89.15 196.165 L 89.15 216.315 L 86.65 216.315 L 86.65 237.195 L 89.15 237.195 L 89.15 257.345 L 86.65 257.345 L 86.65 275.8"
         id="path29" />
      <path
         style="fill:none;stroke:#000000;stroke-width:1"
         d="M 86.65 275.8 L 56.65 275.8 L 56.65 278.3 L 36.5 278.3 L 36.5 275.8 L 6.5 275.8"
         id="path30" />
      <path
         style="fill:none;stroke:#000000;stroke-width:1"
         d="M 6.5 275.8 L 6.5 257.345 L 4 257.345 L 4 237.195 L 6.5 237.195 L 6.5 216.315 L 4 216.315 L 4 196.165 L 6.5 196.165 L 6.5 175.285 L 4 175.285 L 4 155.135 L 6.5 155.135 L 6.5 134.255 L 4 134.255 L 4 114.105 L 6.5 114.105 L 6.5 95.65"
         id="path31" />
    </g>
    <g
       id="panel5931">
      <path
         style="fill:none;stroke:#000000;stroke-width:1"
         d="M 93.15 93.15 L 114.255 93.15 L 114.255 95.65 L 134.105 95.65 L 134.105 93.15 L 155.285 93.15 L 155.285 95.65 L 175.135 95.65 L 175.135 93.15 L 196.315 93.15 L 196.315 95.65 L 216.165 95.65 L 216.165 93.15 L 237.345 93.15 L 237.345 95.65 L 257.195 95.65 L 257.195 93.15 L 278.3 93.15"
         id="path32" />
      <path
         style="fill:none;stroke:#000000;stroke-width:1"
         d="M 278.3 93.15 L 278.3 114.255 L 275.8 114.255 L 275.8 134.105 L 278.3 134.105 L 278.3 155.285 L 275.8 155.285 L 275.8 175.135 L 278.3 175.135 L 278.3 196.315 L 275.8 196.315 L 275.8 216.165 L 278.3 216.165 L 278.3 237.345 L 275.8 237.345 L 275.8 257.195 L 278.3 257.195 L 278.3 278.3"
         id="path33" />
      <path
         style="fill:none;stroke:#000000;stroke-width:1"
         d="M 278.3 278.3 L 257.195 278.3 L 257.195 275.8 L 237.345 275.8 L 237.345 278.3 L 216.165 278.3 L 216.165 275.8 L 196.315 275.8 L 196.315 278.3 L 175.135 278.3 L 175.135 275.8 L 155.285 275.8 L 155.285 278.3 L 134.105 278.3 L 134.105 275.8 L 114.255 275.8 L 114.255 278.3 L 93.15 278.3"
         id="path34" />
      <path
         style="fill:none;stroke:#000000;stroke-width:1"
         d="M 93.15 278.3 L 93.15 257.195 L 95.65 257.195 L 95.65 237.345 L 93.15 237.345 L 93.15 216.165 L 95.65 216.165 L 95.65 196.315 L 93.15 196.315 L 93.15 175.135 L 95.65 175.135 L 95.65 155.285 L 93.15 155.285 L 93.15 134.105 L 95.65 134.105 L 95.65 114.255 L 93.15 114.255 L 93.15 93.15"
         id="path35" />
    </g>
    <g
       id="panel2494">
      <path
         style="fill:none;stroke:#000000;stroke-width:1"
         d="M 284.8 95.65 L 314.8 95.65 L 314.8 93.15 L 334.95 93.15 L 334.95 95.65 L 364.95 95.65"
         id="path36" />
      <path
         style="fill:none;stroke:#000000;stroke-width:1"
         d="M 364.95 95.65 L 364.95 114.105 L 367.45 114.105 L 367.45 134.255 L 364.95 134.255 L 364.95 155.135 L 367.45 155.135 L 367.45 175.285 L 364.95 175.285 L 364.95 196.165 L 367.45 196.165 L 367.45 216.315 L 364.95 216.315 L 364.95 237.195 L 367.45 237.195 L 367.45 257.345 L 364.95 257.345 L 364.95 275.8"
         id="path37" />
      <path
         style="fill:none;stroke:#000000;stroke-width:1"
         d="M 364.95 275.8 L 334.95 275.8 L 334.95 278.3 L 314.8 278.3 L 314.8 275.8 L 284.8 275.8"
         id="path38" />
      <path
         style="fill:none;stroke:#000000;stroke-width:1"
         d="M 284.8 275.8 L 284.8 257.345 L 282.3 257.345 L 282.3 237.195 L 284.8 237.195 L 284.8 216.315 L 282.3 216.315 L 282.3 196.165 L 284.8 196.165 L 284.8 175.285 L 282.3 175.285 L 282.3 155.135 L 284.8 155.135 L 284.8 134.255 L 282.3 134.255 L 282.3 114.105 L 284.8 114.105 L 284.8 95.65"
         id="path39" />
    </g>
    <g
       id="panel75">
      <path
         style="fill:none;stroke:#000000;stroke-width:1"
         d="M 371.45 93.15 L 392.555 93.15 L 392.555 95.65 L 412.405 95.65 L 412.405 93.15 L 433.585 93.15 L 433.585 95.65 L 453.435 95.65 L 453.435 93.15 L 474.615 93.15 L 474.615 95.65 L 494.465 95.65 L 494.465 93.15 L 515.645 93.15 L 515.645 95.65 L 535.495 95.65 L 535.495 93.15 L 556.6 93.15"
         id="path40" />
      <path
         style="fill:none;stroke:#000000;stroke-width:1"
         d="M 556.6 93.15 L 556.6 114.255 L 554.1 114.255 L 554.1 134.105 L 556.6 134.105 L 556.6 155.285 L 554.1 155.285 L 554.1 175.135 L 556.6 175.135 L 556.6 196.315 L 554.1 196.315 L 554.1 216.165 L 556.6 216.165 L 556.6 237.345 L 554.1 237.345 L 554.1 257.195 L 556.6 257.195 L 556.6 278.3"
         id="path41" />
      <path
         style="fill:none;stroke:#000000;stroke-width:1"
         d="M 556.6 278.3 L 535.495 278.3 L 535.495 275.8 L 515.645 275.8 L 515.645 278.3 L 494.465 278.3 L 494.465 275.8 L 474.615 275.8 L 474.615 278.3 L 453.435 278.3 L 453.435 275.8 L 433.585 275.8 L 433.585 278.3 L 412.405 278.3 L 412.405 275.8 L 392.555 275.8 L 392.555 278.3 L 371.45 278.3"
         id="path42" />
      <path
         style="fill:none;stroke:#000000;stroke-width:1"
         d="M 371.45 278.3 L 371.45 257.195 L 373.95 257.195 L 373.95 237.345 L 371.45 237.345 L 371.45 216.165 L 373.95 216.165 L 373.95 196.315 L 371.45 196.315 L 371.45 175.135 L 373.95 175.135 L 373.95 155.285 L 371.45 155.285 L 371.45 134.105 L 373.95 134.105 L 373.95 114.255 L 371.45 114.255 L 371.45 93.15"
         id="path43" />
    </g>
    <g
       id="panel4564">
      <path
         style="fill:none;stroke:#000000;stroke-width:1"
         d="M 93.15 6.5 L 114.105 6.5 L 114.105 4 L 134.255 4 L 134.255 6.5 L 155.135 6.5 L 155.135 4 L 175.285 4 L 175.285 6.5 L 196.165 6.5 L 196.165 4 L 216.315 4 L 216.315 6.5 L 237.195 6.5 L 237.195 4 L 257.345 4 L 257.345 6.5 L 278.3 6.5"
         id="path44" />
      <path
         style="fill:none;stroke:#000000;stroke-width:1"
         d="M 278.3 6.5 L 278.3 36.65 L 275.8 36.65 L 275.8 56.5 L 278.3 56.5 L 278.3 86.65"
         id="path45" />
      <path
         style="fill:none;stroke:#000000;stroke-width:1"
         d="M 278.3 86.65 L 257.345 86.65 L 257.345 89.15 L 237.195 89.15 L 237.195 86.65 L 216.315 86.65 L 216.315 89.15 L 196.165 89.15 L 196.165 86.65 L 175.285 86.65 L 175.285 89.15 L 155.135 89.15 L 155.135 86.65 L 134.255 86.65 L 134.255 89.15 L 114.105 89.15 L 114.105 86.65 L 93.15 86.65"
         id="path46" />
      <path
         style="fill:none;stroke:#000000;stroke-width:1"
         d="M 93.15 86.65 L 93.15 56.5 L 95.65 56.5 L 95.65 36.65 L 93.15 36.65 L 93.15 6.5"
         id="path47" />
    </g>
    <rect
       style="fill:none;fill-rule:evenodd;stroke:#000000;stroke-width:1;stroke-dasharray:none;paint-order:markers stroke fill"
       id="rect47"
       width="160"
       height="160"
       x="105.725"
       y="105.725" />
  </g>
</svg>
